<?xml version="1.0" encoding="utf-8"?>
<!-- Generator: Adobe Illustrator 22.0.1, SVG Export Plug-In . SVG Version: 6.00 Build 0)  -->
<svg version="1.1" xmlns="http://www.w3.org/2000/svg" xmlns:xlink="http://www.w3.org/1999/xlink" x="0px" y="0px"
	 viewBox="0 0 1712 510" style="enable-background:new 0 0 1712 510;" xml:space="preserve">
<style type="text/css">
	.st0{fill:#301B10;}
	.st1{fill:#006838;}
	.st2{fill:#000000;}
	.st3{fill:#FBD016;}
</style>
<g id="Layer_3">
	<path class="st0" d="M291,140.8c0,0-0.3,0-0.7,0.1c-0.1,0.3-0.2,0.6-0.4,0.9c-1.8,2.8-2.9,6.3-5,8.8c0.2,2-0.9,4.2-3.2,4.2
		c-1.3,0-2.2-0.7-2.7-1.6c-1.1-0.2-2.1-0.8-3.1-1.5c0.9,2,1.7,6.6,0.8,17.5c0,0,5.8,4.4,7.6,2.6c0,0,2.6-6.5,2.1-10.6
		c0,0,2.6-14.1,4.7-17.8V140.8z"/>
	<path class="st0" d="M331.4,137.6c-0.5,1.1-1.4,1.8-2.9,1.8c-0.2,0-0.4,0-0.6-0.1c-0.4,0.1-0.8,0.2-1.2,0.2c-0.6,0-1.2-0.2-1.6-0.4
		c-0.4,0.3-1,0.4-1.6,0.4c-0.4,0-0.8-0.1-1.1-0.2c-0.3,0.1-0.7,0.2-1.1,0.2c-0.9,0-1.6-0.3-2.1-0.8c-0.2,0-0.5,0.1-0.7,0.1
		c-1.2,0-2-0.5-2.6-1.3c-0.1,0-0.3,0-0.5,0c-1.1,0-2-0.5-2.5-1.3c-0.2-0.2-0.4-0.4-0.5-0.6c-0.6,0-1.2-0.2-1.6-0.5
		c-0.5,0.5-1.3,0.9-2.2,0.9c-0.2,0-0.3,0-0.4,0c-0.5,0.7-1.3,1.1-2.4,1.1c-0.5,0-1-0.1-1.4-0.3c-0.1,0.2-0.1,0.4-0.2,0.5
		c0,0-1,4.5-3.1,6.8c0,0,4.9,22.5,5,26.1c0,0,0.2,0.1,0.5,0.2c0.8-0.8,2-1.1,3.2-0.9c0.8,0.1,1.6,0.3,2.4,0.4
		c0.5-0.7,1.3-1.1,2.4-1.1c1.5,0,2.5,0.9,3,2.1c0.6,0.1,1.2,0.2,1.8,0.4c0.5,0.1,0.9,0.3,1.2,0.5c0.3-0.2,0.5-0.5,0.7-0.9
		c0,0,0.7-9.7,2.2-13.1c0,0,8.9-16.6,10.4-18.3v-1.5C333.7,138.2,332.8,138,331.4,137.6z"/>
	<path class="st0" d="M358.2,148c-0.5,0.5-1.2,0.8-2.1,0.8c-0.3,0-0.5,0-0.7-0.1c-0.2,0.1-0.5,0.1-0.8,0.1c-0.2,0-0.5,0-0.7-0.1
		c-0.2,0-0.4,0.1-0.7,0.1c-0.9,0-1.6-0.3-2.1-0.8c-1.2-0.7-1.8-2.3-1.7-3.9c-0.1-0.2-0.2-0.3-0.2-0.5c-0.5-0.5-0.8-1.1-0.9-1.7
		c0,0,0-0.1-0.1-0.1c-0.5,1.5-1.8,5-4.5,8.6c0,0-11,13.7-10.2,21.9c0.5-0.4,1.1-0.6,1.8-0.6c0.9,0,1.5,0.3,2,0.8
		c0.3-0.1,0.7-0.2,1.1-0.2c0.8,0,1.5,0.3,2,0.8c0.9,0,1.7,0.4,2.2,1c0.4,0,0.7,0.1,1.1,0.2c0,0,0.1,0,0.1,0c0.5,0,0.9,0.1,1.3,0.3
		c0.3-0.2,0.6-0.3,0.9-0.4c0.5-1.9,1.6-5.4,3.5-8.4c0,0,8-13.5,8.1-14.3l0.8-2.6C358.6,148.8,358.4,148.5,358.2,148z"/>
	<path class="st0" d="M273.5,495.3c-11.7,1.3-17.8-26.9-17.8-26.9c-3.8-12.2-3-33.7-3-33.7c15.7-21.3-0.6-34.6-0.6-34.6
		c-4.5-43.3,1.5-81.9,1.5-81.9c1.1-15.7,22.2-39.9,22.2-39.9c11.2-13.1,13.1-25.1,13.4-28.7c-0.5,0.4-1.2,0.7-2,0.7
		c-0.3,0-0.6,0-0.9-0.1c-0.4,0.5-1.1,0.9-1.9,1.1c-0.5,0.7-1.4,1.2-2.6,1.2c-0.6,0-1.2-0.1-1.6-0.4c-0.4,0.1-0.8,0.2-1.2,0.2
		c-0.7,0-1.4-0.2-1.9-0.5c-0.5,0.8-1.4,1.4-2.7,1.4c-0.9,0-1.6-0.3-2.2-0.8c-0.7,0.3-1.1,0.5-1.1,0.5c2,23.5-17.2,20.1-17.2,20.1
		c-1.1-1.5-1.4-11.3-1.4-15.3c-0.2-0.1-0.4-0.2-0.5-0.3c-0.5,0.4-1.2,0.6-2,0.6c-0.3,0-0.5,0-0.7-0.1c-0.5,0.9-1.4,1.6-2.8,1.6
		c-0.8,0-1.5-0.2-2-0.6c-0.3,0.1-0.6,0.1-1,0.1c-0.5,0-1-0.1-1.4-0.3c-0.5,0.3-1,0.5-1.7,0.5c-0.5,0-0.9-0.1-1.3-0.2
		c-0.4,0.1-0.8,0.2-1.3,0.2c-0.5,0-1-0.1-1.3-0.3c-0.5,0.3-1,0.4-1.7,0.4c-0.5,0-0.9-0.1-1.3-0.2c-0.5,0.6-1.3,1.1-2.4,1.1
		c-0.6,0-1.1-0.1-1.5-0.3c-0.1,0-0.1,0-0.2,0c-0.7,0-1.2-0.2-1.7-0.4c-0.2,0.2-0.4,0.3-0.7,0.4c-0.2,0.6-0.7,1.2-1.3,1.6
		c0,0,0,0,0,0l0.8,1c1.3,4.8-2.8,8.6-2.8,8.6c-3.1,0.8-15.2-1.4-15.2-1.4c-6.1-1.6-30.1-2.5-30.1-2.5c-11.7-0.7-18.9-4.8-18.9-4.8
		c-0.4-3.5-3.6-7.3-3.6-7.3c-0.6,0.3-5.8-9.3-5.8-9.3l-6.7-2.9c-0.2,0-0.3,0.1-0.5,0.1c1,4.5-2.4,8.8-5.6,11.7
		c-4.3,4.1-9.6,6.7-14.4,10c0.2,0.6,0.4,0.9,0.4,0.9c0.7,1,19,2.1,19,2.1c10.2-1.2,24.3,6,24.3,6c5.4,3.3,18.2,3.1,18.2,3.1
		c16.6-0.2,25.8,5.6,25.8,5.6c0.2,1,8,5.4,8,5.4c4.1,3.9,1.5,16.3,1.5,16.3c-14.1,5-34.1-8.2-34.1-8.2c-4.1-2.5-9.6-4.3-9.6-4.3
		c-5.2-2.4-25.8-4.6-25.8-4.6c-11.3,0-14.6-1.1-14.6-1.1c-5.5-3-10.1-3.5-11.3-3.6c0.4,1.1,0.3,2.4-0.4,3.4c1.1,0.9,1.4,2.4,1,3.7
		c0,0.3,0,0.7-0.1,1c0.2,0,0.2,0.1,0.2,0.1c1.1-0.5,2.9,0.4,2.9,0.4c0.8,0.7,8.8,1.1,8.8,1.1c1.1,0.2,3.8-0.1,3.8-0.1
		c1.7,0.6,4.2,0.8,4.2,0.8c8.6,0,18.7,2.7,18.7,2.7c4.3-0.4,9.2,4,9.2,4c2.2,2.5,9.2,4.5,9.2,4.5c9.1,0.9,13.8,3.2,13.8,3.2
		c5.5,1.4,5.2,3.4,5.2,3.4l-1,3c-30.5-2.1-73.8-2-73.8-2c-8,0.5-8.1,3.5-8.1,3.5c0.7,1,2.3,0.9,2.3,0.9c14.9-0.6,73.7,5.6,73.7,5.6
		c3.3,0.6,10.8-0.1,10.8-0.1c26.2-3.7,10.6,17.9,10.6,17.9c-9.4-0.8-49.7,0.2-49.7,0.2c-4.4,1.6-11.3,6.2-11.3,6.2
		c-7.4,5.5-27.2,8.7-27.2,8.7c-15,2.5-20,4.5-20,4.5c1.8-0.3,5.5,2,5.5,2c13.3,0.1,21.3-2.8,21.3-2.8c2.8-0.4,26.1-8.9,26.1-8.9
		c16.9-7.3,40.3-3.4,40.3-3.4c19,1.7,21.2,11.9,21.2,11.9c6,68.9-1.2,117.7-1.2,117.7c-0.7,9-11.4,9.8-11.4,9.8
		c-2.1,0.3-4.3,2.2-4.3,2.2l0.8,3.1c1.5,0.9,12.7,0.9,12.7,0.9c10.2-1.1,15.7,8.3,15.7,8.3c6.8,7,10.8,4.3,10.8,4.3l0.4-2.8
		c23.7,1.9,31.5-2.3,30.9-2.6C275.6,497.7,273.5,495.3,273.5,495.3z"/>
</g>
<g id="Layer_2">
	<path class="st1" d="M175.4,45c0.6,0.2,33.1,4.5,54.1-22.4c0,0,21.1,4.9,28-7.7c0,0,9.3,7.3,10.8,10.9c1.1,0.4,5.7-0.8,8.9-1.3
		c0,0,12.1-1.5,19.7,6.6c0,0,8.9,7.5,17.6,5.8c0,0,13.3-0.2,15.7,1.7c0,0,10,39.1,54.6,40.3c0,0,32.2,7,62,18.8
		c0,0,5.3,25.8,0.9,37.1c0,0-22.2,9.4-51.9,3.8l-4.4,3.2c0,0-2.1,4-13.8,2.6c0,0-7.4-1.5-18.4,7.1c0,0-9.5,4.9-9.7-6.2
		c0,0-2.5-3-5.1-4.1c0,0-1.3-2.1-3.2-2.8c0,0-27.1,5.3-30.1-0.8c0,0-22,3-22,9c0,0-3.2,3.3-2.5,6c0,0-2.3,4.6-6.3,2.9
		c0,0-9.1-8.8-15.2-6.6c0,0-8.5,4.3-9.5,5.6c0,0-3.4,2.8-4.9,1.3c0,0-6,2.6-3.9,6.3l0.4,7.1c0,0-3.2,1.9,26.2-1.2
		c0,0,7.8-1.1,16.9,5.8c0,0,3.2,2.6,14.8-4.4c0,0,9.5-6,21.1,3.9c0,0,18.9-7.2,25.4,7l1.1,1.7c0,0,3.8,1.6,6.3,0.9
		c0,0,12.2-13.5,25.7-4.7c0,0,11.3,8.4,16.3,8.5c0,0,17.1,2,20.7,4.6c0,0,5.6,3.1,7.8,5.3c0,0,0.4,1.3-1,2.4c0,0-10,10.5-12.2,11.6
		c0,0-2.5,2.4-2.7,2.9c0,0-3.6,2.4-4.4,3.1c0,0-6.2,3.6-7.2,3.7c0,0-6.6,3.1-10.8,7.9c0,0-13.5-0.1-23.7,7.9c0,0-12.2,8.8-13.5,8.9
		c0,0-5.5-0.4-10.1-9.1c0,0-7.7,3.8-26.9,3.6c0,0-17.8-0.1-26.3,10.9c0,0-7.9,3.7-8.7,3.9c0,0-9.4,1.1-10,0.8c0,0-1.2-7.6-1-9.2
		c0,0-0.9-5.6-1.8-5.3c0,0-6.9-0.5-8.7,0.3c0,0-4.1-0.5-5,2.8c0,0-6.1,5.5-1.4,9c0,0,1.5,6.9-4.3,7.8c0,0-12.5,2.4-19.2,1
		c0,0-1.7-1.2-2.7,0.9c0,0-4.7,5.7-7.6-1.5c0,0-4.2-12.9-16.8-15.2c0,0-11.3-0.7-16.2-15.1l-1.6-5.1c0,0-18.8-7.2-38.7,4
		c0,0-2.8,19.7-5.5,24.9c0,0-0.7,1.4-4.1,2.7c0,0-7.6,2.8-11.9,8.1c0,0-4.3,3.7-0.7,15.9c0,0,3.9,27.8,2.6,31.2c0,0-0.1,3.4-4,2.5
		c0,0-3.5,0.3-5.6,3.2c0,0-16.8,12.7-18.3,13c0,0-8.1,7-17.2,4.2c0,0-14.4-3.5-23.3,3.3c0,0-8.4,5.4-24.6,11.3c0,0-5.8-3.7-7.4-11.3
		c0,0,0.3-1.4-1.8-1.9c0,0-17.6-0.2-13.1-22.8c0,0,4.7-0.4,5.4-0.5c0,0,1,0.9,0.9-1.9l-0.6-20l0.3-1.6c0,0-0.7,0.6,1-1.3l4.8-2.8
		c0,0-0.9-6.1,4.9-21.9c0,0,2.3-7.9,1.7-15.2l-0.3-5c0,0-0.8-2.4,1.9-6.5c0,0,18.2-21.5,20-23.8c0,0,4.6-4.7,5.8-7.2
		c0,0-0.1-2.2,4.1-3.1l6.5-1.8c0,0,3.8,0,5.1-6.1c0,0,0.5-11.8,0.8-11.9c0.3-0.2-1.5-7.6,7.1-15.8l10.2-9.9c0,0,2.6-0.7,1.8-8.9V137
		c0,0,0.4-2,4.3-4.6c0,0,9.9-7,13-11.7c0,0,4.1-0.9,12.1-1.1c0,0,6.2-8.6,11.3-11.7c0,0,15.1-7.9,17.2-21.2c0,0,10.1-3.9,14.5-15.5
		L175.4,45z"/>
</g>
</svg>
